<?xml version="1.0" standalone="no"?>
<!DOCTYPE svg PUBLIC "-//W3C//DTD SVG 1.1//EN"
"http://www.w3.org/Graphics/SVG/1.1/DTD/svg11.dtd">

<svg width="429" height="372" view_box="0 0 429 372"
xmlns="http://www.w3.org/2000/svg"
xmlns:link="http://www.w3.org/1999/xlink">\n\n<desc>Généré par Mocodo 2.3.7 le Fri, 19 Nov 2021 07:33:04</desc>

<rect id="frame" x="0" y="0" width="429" height="372" fill="#f7f7f7" stroke="none" stroke-width="0"/>

<!-- Association can have -->
<line x1="162" y1="34" x2="51" y2="34" stroke="#e08214" stroke-width="2"/>
<text x="101" y="51.0" fill="#542788" font-family="Verdana" font-size="12">1,N</text>
<line x1="51" y1="169" x2="51" y2="34" stroke="#e08214" stroke-width="2"/>
<text x="56.0" y="136" fill="#542788" font-family="Verdana" font-size="12">1,1</text>
<g id="association-can have">
	<path d="M 72 9 a 14 14 90 0 1 14 14 V 34 h -70 V 23 a 14 14 90 0 1 14 -14" fill="#fdb863" stroke="#fdb863" stroke-width="0"/>
	<path d="M 86 34.0 v 11 a 14 14 90 0 1 -14 14 H 30 a 14 14 90 0 1 -14 -14 V 34.0 H 70" fill="#fee0b6" stroke="#fee0b6" stroke-width="0"/>
	<rect x="16" y="9" width="70" height="50" fill="none" rx="14" stroke="#e08214" stroke-width="2"/>
	<line x1="16" y1="34" x2="86" y2="34" stroke="#e08214" stroke-width="1"/>
	<text x="23" y="26.7" fill="#000000" font-family="Verdana" font-size="12">can have</text>
</g>

<!-- Association behaves -->
<line x1="378" y1="34" x2="378" y2="169" stroke="#e08214" stroke-width="2"/>
<text x="383.0" y="76" fill="#542788" font-family="Verdana" font-size="12">1,N</text>
<line x1="270" y1="169" x2="378" y2="169" stroke="#e08214" stroke-width="2"/>
<text x="318" y="161.0" fill="#542788" font-family="Verdana" font-size="12">1,1</text>
<g id="association-behaves">
	<path d="M 397 144 a 14 14 90 0 1 14 14 V 169 h -66 V 158 a 14 14 90 0 1 14 -14" fill="#fdb863" stroke="#fdb863" stroke-width="0"/>
	<path d="M 411 169.0 v 11 a 14 14 90 0 1 -14 14 H 359 a 14 14 90 0 1 -14 -14 V 169.0 H 66" fill="#fee0b6" stroke="#fee0b6" stroke-width="0"/>
	<rect x="345" y="144" width="66" height="50" fill="none" rx="14" stroke="#e08214" stroke-width="2"/>
	<line x1="345" y1="169" x2="411" y2="169" stroke="#e08214" stroke-width="1"/>
	<text x="352" y="161.7" fill="#000000" font-family="Verdana" font-size="12">behaves</text>
</g>

<!-- Association is create -->
<line x1="270" y1="321" x2="378" y2="321" stroke="#e08214" stroke-width="2"/>
<text x="309" y="338.0" fill="#542788" font-family="Verdana" font-size="12">1,N</text>
<line x1="270" y1="169" x2="378" y2="321" stroke="#e08214" stroke-width="2"/>
<text x="318" y="226.920951483" fill="#542788" font-family="Verdana" font-size="12">1,1</text>
<g id="association-is create">
	<path d="M 397 296 a 14 14 90 0 1 14 14 V 321 h -66 V 310 a 14 14 90 0 1 14 -14" fill="#fdb863" stroke="#fdb863" stroke-width="0"/>
	<path d="M 411 321.0 v 11 a 14 14 90 0 1 -14 14 H 359 a 14 14 90 0 1 -14 -14 V 321.0 H 66" fill="#fee0b6" stroke="#fee0b6" stroke-width="0"/>
	<rect x="345" y="296" width="66" height="50" fill="none" rx="14" stroke="#e08214" stroke-width="2"/>
	<line x1="345" y1="321" x2="411" y2="321" stroke="#e08214" stroke-width="1"/>
	<text x="352" y="313.7" fill="#000000" font-family="Verdana" font-size="12">is create</text>
</g>

<!-- Association can be -->
<line x1="51" y1="321" x2="162" y2="169" stroke="#e08214" stroke-width="2"/>
<text x="55.3596315889" y="279" fill="#542788" font-family="Verdana" font-size="12">1,1</text>
<line x1="270" y1="169" x2="162" y2="169" stroke="#e08214" stroke-width="2"/>
<text x="200" y="186.0" fill="#542788" font-family="Verdana" font-size="12">1,N</text>
<g id="association-can be">
	<path d="M 176 144 a 14 14 90 0 1 14 14 V 169 h -56 V 158 a 14 14 90 0 1 14 -14" fill="#fdb863" stroke="#fdb863" stroke-width="0"/>
	<path d="M 190 169.0 v 11 a 14 14 90 0 1 -14 14 H 148 a 14 14 90 0 1 -14 -14 V 169.0 H 56" fill="#fee0b6" stroke="#fee0b6" stroke-width="0"/>
	<rect x="134" y="144" width="56" height="50" fill="none" rx="14" stroke="#e08214" stroke-width="2"/>
	<line x1="134" y1="169" x2="190" y2="169" stroke="#e08214" stroke-width="1"/>
	<text x="141" y="161.7" fill="#000000" font-family="Verdana" font-size="12">can be</text>
</g>

<!-- Association add -->
<line x1="162" y1="34" x2="270" y2="34" stroke="#e08214" stroke-width="2"/>
<text x="201" y="51.0" fill="#542788" font-family="Verdana" font-size="12">1,N</text>
<line x1="270" y1="169" x2="270" y2="34" stroke="#e08214" stroke-width="2"/>
<text x="275.0" y="76" fill="#542788" font-family="Verdana" font-size="12">1,1</text>
<g id="association-add">
	<path d="M 275 9 a 14 14 90 0 1 14 14 V 34 h -38 V 23 a 14 14 90 0 1 14 -14" fill="#fdb863" stroke="#fdb863" stroke-width="0"/>
	<path d="M 289 34.0 v 11 a 14 14 90 0 1 -14 14 H 265 a 14 14 90 0 1 -14 -14 V 34.0 H 38" fill="#fee0b6" stroke="#fee0b6" stroke-width="0"/>
	<rect x="251" y="9" width="38" height="50" fill="none" rx="14" stroke="#e08214" stroke-width="2"/>
	<line x1="251" y1="34" x2="289" y2="34" stroke="#e08214" stroke-width="1"/>
	<text x="258" y="26.7" fill="#000000" font-family="Verdana" font-size="12">add</text>
</g>

<!-- Association can written -->
<line x1="270" y1="321" x2="162" y2="321" stroke="#e08214" stroke-width="2"/>
<text x="209" y="338.0" fill="#542788" font-family="Verdana" font-size="12">1,N</text>
<line x1="51" y1="321" x2="162" y2="321" stroke="#e08214" stroke-width="2"/>
<text x="93" y="338.0" fill="#542788" font-family="Verdana" font-size="12">1,1</text>
<g id="association-can written">
	<path d="M 190 296 a 14 14 90 0 1 14 14 V 321 h -84 V 310 a 14 14 90 0 1 14 -14" fill="#fdb863" stroke="#fdb863" stroke-width="0"/>
	<path d="M 204 321.0 v 11 a 14 14 90 0 1 -14 14 H 134 a 14 14 90 0 1 -14 -14 V 321.0 H 84" fill="#fee0b6" stroke="#fee0b6" stroke-width="0"/>
	<rect x="120" y="296" width="84" height="50" fill="none" rx="14" stroke="#e08214" stroke-width="2"/>
	<line x1="120" y1="321" x2="204" y2="321" stroke="#e08214" stroke-width="1"/>
	<text x="127" y="313.7" fill="#000000" font-family="Verdana" font-size="12">can written</text>
</g>

<!-- Entity COMMENT -->
<g id="entity-COMMENT">
	<g id="frame-COMMENT">
		<rect x="14" y="287" width="74" height="25" fill="#b2abd2" stroke="#b2abd2" stroke-width="0"/>
		<rect x="14" y="312.0" width="74" height="43" fill="#d8daeb" stroke="#d8daeb" stroke-width="0"/>
		<rect x="14" y="287" width="74" height="68" fill="none" stroke="#8073ac" stroke-width="2"/>
		<line x1="14" y1="312" x2="88" y2="312" stroke="#8073ac" stroke-width="1"/>
	</g>
	<text x="19" y="304.7" fill="#000000" font-family="Verdana" font-size="12">COMMENT</text>
	<text x="19" y="329.8" fill="#000000" font-family="Verdana" font-size="12">content</text>
	<line x1="19" y1="332" x2="65" y2="332" stroke="#000000" stroke-width="1"/>
	<text x="19" y="346.8" fill="#000000" font-family="Verdana" font-size="12">date</text>
</g>

<!-- Entity EXTENSION -->
<g id="entity-EXTENSION">
	<g id="frame-EXTENSION">
		<rect x="9" y="144" width="84" height="25" fill="#b2abd2" stroke="#b2abd2" stroke-width="0"/>
		<rect x="9" y="169.0" width="84" height="25" fill="#d8daeb" stroke="#d8daeb" stroke-width="0"/>
		<rect x="9" y="144" width="84" height="50" fill="none" stroke="#8073ac" stroke-width="2"/>
		<line x1="9" y1="169" x2="93" y2="169" stroke="#8073ac" stroke-width="1"/>
	</g>
	<text x="14" y="161.7" fill="#000000" font-family="Verdana" font-size="12">EXTENSION</text>
	<text x="14" y="186.8" fill="#000000" font-family="Verdana" font-size="12">name</text>
	<line x1="14" y1="189" x2="49" y2="189" stroke="#000000" stroke-width="1"/>
</g>

<!-- Entity SCENARIO -->
<g id="entity-SCENARIO">
	<g id="frame-SCENARIO">
		<rect x="227" y="84" width="86" height="25" fill="#b2abd2" stroke="#b2abd2" stroke-width="0"/>
		<rect x="227" y="109.0" width="86" height="145" fill="#d8daeb" stroke="#d8daeb" stroke-width="0"/>
		<rect x="227" y="84" width="86" height="170" fill="none" stroke="#8073ac" stroke-width="2"/>
		<line x1="227" y1="109" x2="313" y2="109" stroke="#8073ac" stroke-width="1"/>
	</g>
	<text x="237" y="101.7" fill="#000000" font-family="Verdana" font-size="12">SCENARIO</text>
	<text x="232" y="126.7" fill="#000000" font-family="Verdana" font-size="12">name</text>
	<line x1="232" y1="129" x2="267" y2="129" stroke="#000000" stroke-width="1"/>
	<text x="232" y="143.7" fill="#000000" font-family="Verdana" font-size="12">resume</text>
	<text x="232" y="160.7" fill="#000000" font-family="Verdana" font-size="12">objectif</text>
	<text x="232" y="177.8" fill="#000000" font-family="Verdana" font-size="12">special rules</text>
	<text x="232" y="194.8" fill="#000000" font-family="Verdana" font-size="12">date</text>
	<text x="232" y="211.8" fill="#000000" font-family="Verdana" font-size="12">map</text>
	<text x="232" y="228.8" fill="#000000" font-family="Verdana" font-size="12">time</text>
	<text x="232" y="245.8" fill="#000000" font-family="Verdana" font-size="12">nb survivors</text>
</g>

<!-- Entity AUTHOR -->
<g id="entity-AUTHOR">
	<g id="frame-AUTHOR">
		<rect x="236" y="279" width="68" height="25" fill="#b2abd2" stroke="#b2abd2" stroke-width="0"/>
		<rect x="236" y="304.0" width="68" height="59" fill="#d8daeb" stroke="#d8daeb" stroke-width="0"/>
		<rect x="236" y="279" width="68" height="84" fill="none" stroke="#8073ac" stroke-width="2"/>
		<line x1="236" y1="304" x2="304" y2="304" stroke="#8073ac" stroke-width="1"/>
	</g>
	<text x="244" y="296.7" fill="#000000" font-family="Verdana" font-size="12">AUTHOR</text>
	<text x="241" y="321.8" fill="#000000" font-family="Verdana" font-size="12">pseudo</text>
	<line x1="241" y1="324" x2="285" y2="324" stroke="#000000" stroke-width="1"/>
	<text x="241" y="338.8" fill="#000000" font-family="Verdana" font-size="12">email</text>
	<text x="241" y="355.8" fill="#000000" font-family="Verdana" font-size="12">password</text>
</g>

<!-- Entity DIFFICULTY -->
<g id="entity-DIFFICULTY">
	<g id="frame-DIFFICULTY">
		<rect x="336" y="9" width="84" height="25" fill="#b2abd2" stroke="#b2abd2" stroke-width="0"/>
		<rect x="336" y="34.0" width="84" height="25" fill="#d8daeb" stroke="#d8daeb" stroke-width="0"/>
		<rect x="336" y="9" width="84" height="50" fill="none" stroke="#8073ac" stroke-width="2"/>
		<line x1="336" y1="34" x2="420" y2="34" stroke="#8073ac" stroke-width="1"/>
	</g>
	<text x="341" y="26.7" fill="#000000" font-family="Verdana" font-size="12">DIFFICULTY</text>
	<text x="341" y="51.8" fill="#000000" font-family="Verdana" font-size="12">name</text>
	<line x1="341" y1="54" x2="376" y2="54" stroke="#000000" stroke-width="1"/>
</g>

<!-- Entity VERSION -->
<g id="entity-VERSION">
	<g id="frame-VERSION">
		<rect x="128" y="9" width="68" height="25" fill="#b2abd2" stroke="#b2abd2" stroke-width="0"/>
		<rect x="128" y="34.0" width="68" height="25" fill="#d8daeb" stroke="#d8daeb" stroke-width="0"/>
		<rect x="128" y="9" width="68" height="50" fill="none" stroke="#8073ac" stroke-width="2"/>
		<line x1="128" y1="34" x2="196" y2="34" stroke="#8073ac" stroke-width="1"/>
	</g>
	<text x="133" y="26.7" fill="#000000" font-family="Verdana" font-size="12">VERSION</text>
	<text x="133" y="51.8" fill="#000000" font-family="Verdana" font-size="12">name</text>
	<line x1="133" y1="54" x2="168" y2="54" stroke="#000000" stroke-width="1"/>
</g>
</svg>